<svg width="240" height="320" viewBox="0 0 240 320" fill="none" xmlns="http://www.w3.org/2000/svg">
<g clip-path="url(#clip0_4_1793)">
<path d="M240 0H0V320H240V0Z" fill="#DED7C5"/>
<path d="M240 0H0V262H240V0Z" fill="#1E2826"/>
<path d="M-20 266C249 170 -80 95 50 -5" stroke="#B45741" stroke-width="0.75" stroke-linecap="round" stroke-linejoin="round"/>
<path d="M-10 266C245 170 -71 95 57 -5" stroke="#EEEADD" stroke-width="0.75" stroke-linecap="round" stroke-linejoin="round"/>
<path d="M0 266C241 170 -62 95 64 -5" stroke="#EEEADD" stroke-width="0.75" stroke-linecap="round" stroke-linejoin="round"/>
<path d="M10 266C237 170 -53 95 71 -5" stroke="#EEEADD" stroke-width="0.75" stroke-linecap="round" stroke-linejoin="round"/>
<path d="M20 266C233 170 -44 95 78 -5" stroke="#B45741" stroke-width="0.75" stroke-linecap="round" stroke-linejoin="round"/>
<path d="M30 266C229 170 -35 95 85 -5" stroke="#EEEADD" stroke-width="0.75" stroke-linecap="round" stroke-linejoin="round"/>
<path d="M40 266C225 170 -26 95 92 -5" stroke="#EEEADD" stroke-width="0.75" stroke-linecap="round" stroke-linejoin="round"/>
<path d="M50 266C221 170 -17 95 99 -5" stroke="#EEEADD" stroke-width="0.75" stroke-linecap="round" stroke-linejoin="round"/>
<path d="M60 266C217 170 -8 95 106 -5" stroke="#B45741" stroke-width="0.75" stroke-linecap="round" stroke-linejoin="round"/>
<path d="M70 266C213 170 1 95 113 -5" stroke="#EEEADD" stroke-width="0.75" stroke-linecap="round" stroke-linejoin="round"/>
<path d="M80 266C209 170 10 95 120 -5" stroke="#EEEADD" stroke-width="0.75" stroke-linecap="round" stroke-linejoin="round"/>
<path d="M90 266C205 170 19 95 127 -5" stroke="#EEEADD" stroke-width="0.75" stroke-linecap="round" stroke-linejoin="round"/>
<path d="M99.9999 266C201 170 27.9999 95 134 -5" stroke="#B45741" stroke-width="0.75" stroke-linecap="round" stroke-linejoin="round"/>
<path d="M110 266C197 170 37 95 141 -5" stroke="#EEEADD" stroke-width="0.75" stroke-linecap="round" stroke-linejoin="round"/>
<path d="M120 266C193 170 46 95 148 -5" stroke="#EEEADD" stroke-width="0.75" stroke-linecap="round" stroke-linejoin="round"/>
<path d="M130 266C189 170 54.9999 95 155 -5" stroke="#EEEADD" stroke-width="0.75" stroke-linecap="round" stroke-linejoin="round"/>
<path d="M140 266C185 170 64.0001 95 162 -5" stroke="#B45741" stroke-width="0.75" stroke-linecap="round" stroke-linejoin="round"/>
<path d="M150 266C181 170 73 95 169 -5" stroke="#EEEADD" stroke-width="0.75" stroke-linecap="round" stroke-linejoin="round"/>
<path d="M160 266C177 170 81.9999 95 176 -5" stroke="#EEEADD" stroke-width="0.75" stroke-linecap="round" stroke-linejoin="round"/>
<path d="M170 266C173 170 91 95 183 -5" stroke="#EEEADD" stroke-width="0.75" stroke-linecap="round" stroke-linejoin="round"/>
<path d="M180 266C169 170 100 95 190 -5" stroke="#B45741" stroke-width="0.75" stroke-linecap="round" stroke-linejoin="round"/>
<path d="M190 266C165 170 109 95 197 -5" stroke="#EEEADD" stroke-width="0.75" stroke-linecap="round" stroke-linejoin="round"/>
<path d="M200 266C161 170 118 95 204 -5" stroke="#EEEADD" stroke-width="0.75" stroke-linecap="round" stroke-linejoin="round"/>
<path d="M210 266C157 170 127 95 211 -5" stroke="#EEEADD" stroke-width="0.75" stroke-linecap="round" stroke-linejoin="round"/>
<path d="M220 266C153 170 136 95 218 -5" stroke="#B45741" stroke-width="0.75" stroke-linecap="round" stroke-linejoin="round"/>
<path d="M230 266C149 170 145 95 225 -5" stroke="#EEEADD" stroke-width="0.75" stroke-linecap="round" stroke-linejoin="round"/>
<path d="M240 266C145 170 154 95 232 -5" stroke="#EEEADD" stroke-width="0.75" stroke-linecap="round" stroke-linejoin="round"/>
<path d="M250 266C141 170 163 95 239 -5" stroke="#EEEADD" stroke-width="0.75" stroke-linecap="round" stroke-linejoin="round"/>
<path d="M260 266C137 170 172 95 246 -5" stroke="#B45741" stroke-width="0.75" stroke-linecap="round" stroke-linejoin="round"/>
<path d="M270 266C133 170 181 95 253 -5" stroke="#EEEADD" stroke-width="0.75" stroke-linecap="round" stroke-linejoin="round"/>
<path d="M105.18 100.29L106.56 100.68M141.53 193.01L142.19 193.45M108.63 101.31L110.26 101.66M194.69 221.05L195.69 221.48M217.55 245.49L219.17 245.6M152.14 191.13L153.17 191.41M50.66 10.39L52.23 10.85M169.36 169.71L171 169.84M15.36 134.91L16.76 135.47M127.65 155.39L128.92 155.49M145.68 14.09L146.03 14.17M219.55 3.67996L220.32 4.20996M155.32 22.91L155.73 23.28M109.37 88.7L111.05 88.79M225.53 122.82L227.16 123.15M28.59 81.66L29.39 81.68M128.14 253.19L129.39 253.55M206.36 38.28L206.97 38.46M43.51 149.71L44.67 150.12M74.99 127.06L76.08 127.16M193.51 161.56L194.77 161.66M130.39 46.44L131.69 46.63M9.45998 185.53L10.55 185.67M207.54 226.84L207.88 227.02M195.11 122.93L195.98 123.39M170.97 101.54L171.66 101.62M4.63998 25.51L4.95998 25.69M140.24 258.45L140.6 258.63M55.6 192.1L57.01 192.38M10.37 88.8L11.22 88.87M116.86 168.24L118.21 168.64M187.34 102.64L188.35 102.76M31.62 54.66L33.14 54.72M178.55 3.23996L179.27 3.52996M175.35 194.56L175.99 194.62M78.31 118.38L79.25 118.63M8.78998 25.89L9.69998 26.33M148.25 162.48L149.79 162.8M5.87998 28.39L7.28998 28.83M172.86 45.68L174.38 45.81M236.75 215.6L238.05 216.11M29.91 109.68L31.53 110.28M165.67 149.66L166.69 149.84M35.94 4.54996L37.58 5.09996M144.07 217.03L145.24 217.48M106.72 136.38L108.47 136.6M38.44 235.13L39.26 235.41M132.72 183.8L134.27 183.93M33.34 105.72L34.5 106.22M129.6 185.38L131.1 185.48M9.37998 157.31L10.34 157.41M163.63 5.92996L164.36 6.24996M136.13 128.35L136.53 128.88M52.21 63.62L53.81 63.79M40.17 197.32L41.43 197.87M39.3 174.03L41.02 174.23M147.99 129.68L148.36 129.95M45.93 179.06L47.66 179.23M164 209.74L164.53 209.79M135.63 2.65996L136.08 2.87996M203.46 27.37L204.65 27.43M34.9 181.54L36.31 181.98M20.5 97.54L20.96 97.68M108.72 250.67L109.34 250.71M171.05 24.88L172.09 25.3M190.98 223.67L191.81 223.96M70.82 24.91L71.23 25.19M109.94 190.13L110.95 190.61M148.26 38.34L149.69 38.87M228.74 125.7L230.45 125.71M172.57 106.12L173.84 106.52M80.86 177.18L81.68 177.32M236.59 171.43L237.21 171.52M140.53 112.39L141.12 112.83M74.86 94.47L75.19 94.98M8.29998 30.93L8.84998 31.27M76.51 142.23L76.88 142.44M211.41 239.89L213.15 240.05M153.28 119.07L154.37 119.37M179.32 32.3L180.64 32.88M62.47 20.15L63.35 20.7M74.17 84.6L75.64 85.09M224.91 111.81L225.55 112.3M236.22 88.9L237.42 89.34M157.92 176.74L159.5 176.85M164.34 4.08996L165.3 4.34996M43.3 20.14L44.24 20.21M151.5 209.93L152.09 210.38M150.28 188.61L150.74 189.04M55.19 39.92L56.34 40.13M33.49 20.03L34.24 20.07M2.93998 195.05L4.47998 195.47M145.95 98.27L146.92 98.65M152.72 130.53L153.26 130.71M107.02 204.79L107.92 204.8M228.51 109.24L229.6 109.48M105.35 103.06L106.15 103.58M30.67 62.16L31.21 62.64M156.89 11.96L157.56 12.16M201.45 233.66L202.57 233.75M97.83 243.95L98.12 244.28M125.49 205.64L125.83 205.92M72.6 8.18996L74.24 8.60996M165.22 230.57L166.91 230.58M76.78 94.49L78.48 94.63M71.4 157.37L72.13 157.61M235.13 6.12996L236.13 6.38996M48.52 142.18L48.94 142.27M134.52 21.62L135.64 21.81M155.33 0.0799561L155.78 0.319956M91.94 63.26L93.37 63.74M200.27 79.53L201.04 79.58M37.41 88.6L38.69 88.76M131.95 253.81L133.49 253.99M91.99 170.81L93.41 170.99M204.63 173.33L205.56 173.36M200.74 5.84996L201.13 6.41996M198.67 254.72L199.85 254.92M20.7 204.61L21.32 204.63M96.01 0.899956L96.65 1.11996M23.83 129.83L24.33 130.42M50.63 201.97L52.14 202.2M215 137.97L215.69 138.52M134.03 109L134.58 109.35M64.95 103.92H65.79M95.7 60.64L97.23 60.86M138.28 254.57L139.92 254.66M98.57 130.71L100.14 131.3M136.39 119.31H138.06M29.5 36.55L30.37 36.82M75.44 51.32L76.6 51.53M24.73 46.33L25.92 46.78M39.38 79.83L39.96 80.21M50.37 3.16996L51.08 3.42996M187.84 23.21L189.34 23.22M217.84 134.21L218.16 134.44M59.17 76.9L60.08 77.21M154.37 238.47L155.94 238.5M48.35 42.26L49.62 42.7M68.47 135.66L69.64 136.21M19.98 78.31L20.5 78.65M150.34 65.82L151.51 65.99M96.28 94.3L97.1 94.63M227.42 253.84L228 254.04M20.02 141.18L21.72 141.35M154.81 162.86L156.09 163.24M212.49 229.93L214.04 230.1M220.74 56.58L222.06 57.05M206.48 100.79L207.92 100.85M127.06 154.36L128.1 154.65M214.26 253.33L215.04 253.8M144.7 261.29L145.71 261.85M70.53 45.45L71.87 45.84M124.12 135.09L124.97 135.34M110.4 197.18L112 197.37M200.8 65.85L201.2 66.04M142.34 5.41996L143.27 5.48996M75.72 96.73L77.4 97M116.18 11.52L117.85 12M230.79 243.45L232.03 243.81M86.04 165.74L87.52 166.06M39.36 140.72L40.75 141.01M188.36 38.6L189.97 38.72M211.64 211.49L212.78 212.03M154.78 31.1L155.7 31.15M215.25 167.14L216.89 167.4M40.19 177.79L41.52 178.25M30.57 78.45L30.93 78.52M5.64998 210.76L6.24998 211.02M1.33998 87.56L2.50998 87.99M116.39 98.46L117.26 98.7M220.02 70.73L221.24 70.85M154.76 11.4L156.45 11.41M168.33 37.97L169.53 38.25M168.19 238.8L169.42 239.35M52.67 221.6L54.08 221.92M72.19 7.98996L73.69 8.23996M234.63 67.62L236.34 68.14M228.28 184.77L229.03 185.03M196.43 60L197.24 60.11M117.01 160.66L117.35 161M161.4 89.87L162.25 90.14M145.85 192.92L146.25 193.27M89.45 133.47L90.34 133.63M112.26 27.59L113.1 27.68M127.53 95.12L129.25 95.4M81.56 93.27L83.25 93.82M115.11 124.97L116.11 125.09M79.98 25.89L81.3 26.43M64.64 101.66L65.92 101.73M42.57 26.23L44.03 26.33M177.03 113.82L177.8 113.86M16.19 72.45L17.3 72.97M152.1 106.52L153.72 107.08M137.51 131.41L139.25 131.74M194.07 2.51996L194.96 3.05996M145.9 58.85L147.3 59.32M112 36.41L112.39 36.42M111.5 236.54L113.11 236.62M115.3 253.65L116.29 254.25M218.09 64.19L219.71 64.41M184.17 222.5L184.73 222.76M81.14 70.34L82.16 70.39M175.05 6.74996L175.54 6.89996M0.72998 44.02L2.43998 44.38M181.16 41.39L181.98 41.69M69.54 261.38L71.19 261.41M187.88 173.16L188.8 173.43M15.79 43.14L17.33 43.17M223.28 223.93L224.17 223.95M21.25 192.95L23 193.19M43.56 242.97L44.36 243.31M114.2 146.57L115.89 146.71M33.55 186.11L34.43 186.58M57.35 49.98L58.81 50.32M202.13 69.79L203.06 69.88M210.88 168.34L212.23 168.87M152.74 75.93L153.39 76.29M10.37 245.85L11.08 246.08M28.84 83.72L29.62 84.02M59.75 126.42L60.38 126.56M34.35 200.28L34.97 200.82M159.33 63.32L160.83 63.54M209.18 194.17L210 194.26M228.71 193.57L230.11 193.82M219.62 189.82L220.75 190.32M44.76 225.36L46.05 225.39M123.88 2.75996L124.23 2.76996M194.63 124.2L195.28 124.6M192.51 259.84L192.79 260.26M163.65 226.07L164.97 226.23M23.9 64.18L25.27 64.67M38.37 253.3L38.7 253.75M74.73 113.14L75.52 113.29M64.47 115.51L65.93 115.8M85.44 3.06996L85.82 3.29996M219.78 137.25L220.49 137.36M160.71 200.93L161.04 201.47M42.19 188.63L43.25 188.7M184.93 36.89L186.23 37.42M152.69 76.75L153.86 77.12M212.63 101.67L213.98 101.78M193.27 150.08L194.55 150.59M154.02 140.83L155.24 140.97M139.93 19.64L141.03 19.67M195.39 43.94L196.83 44.53M190.63 113.12L192.07 113.66M34.62 260.62L34.93 260.84M188.28 35.83L189.01 35.99M51.63 71.37L53.32 71.88M18.69 26.52L20.07 26.74M93.86 1.45996L95.01 1.77996M23.54 6.13996L24 6.17996M196.72 255.46L198.22 255.65M228.35 149.39L229.12 149.75M119.1 150.87L119.66 151.25M65.47 97.19L67.17 97.54M93.78 122.46L94.71 122.6M32.01 216.06L33.5 216.28M152.96 9.57996L153.91 9.89996M2.82998 188.27L3.07998 188.65M188.65 176.29L190.24 176.33M198.52 172.98L199.46 173.18M28.25 224.39L28.92 224.62M8.34998 84.19L8.93998 84.79M4.90998 15.35L6.30998 15.46M188.25 129.59L188.67 129.74M103.06 119.05L103.89 119.57M33.77 252.23L34.05 252.67M78.87 117.46L80.39 117.59M88.04 47.17L89.48 47.35M75.69 3.14996L77.39 3.51996M64.77 200.92L66.01 201.22M54.57 218.68L55.71 218.9M146.21 213.75L146.78 214.02M199.68 74.94L200.16 75.21M136.07 2.96996L137.74 3.50996M138.8 50.23L140.12 50.61M67.56 146.96L68.38 147.4M98.79 110.31L99.99 110.73M106.32 246.16L107.66 246.59M156.07 75.31L157.45 75.46M228.4 116.9L228.83 117.24M222.04 199.54L222.57 199.87M153.2 150.15L154.12 150.33M43.63 130.05L44.83 130.61M11.49 49.05H12.74M178.68 174.27L179.34 174.46M68.34 137.43L69.73 137.91M106.47 160.32L107.06 160.43M221.11 261.11L221.67 261.22M193.17 82.34L194.27 82.8M232.38 212.15L232.7 212.51M72.3 172.62L73.91 172.99M217.99 103.89L218.94 104.19M160.22 138.65L161.27 138.92M189.93 172.98L190.18 173.29M66.58 184.99L67.02 185.17M94.36 8.16996L94.99 8.18996M139.79 152.07H141.54" stroke="#EEEADD" stroke-width="0.6" stroke-linecap="round" stroke-linejoin="round"/>
<path d="M240 262H0V320H240V262Z" fill="#EEEADD"/>
<path d="M15 274H225" stroke="#202B28" stroke-width="0.5" stroke-linecap="round" stroke-linejoin="round"/>
<path d="M18.424 299.08C18.2853 299.08 18.1733 299.064 18.088 299.032C18.0027 299.011 17.96 298.968 17.96 298.904C17.96 298.829 18.0027 298.771 18.088 298.728C18.1733 298.685 18.3067 298.648 18.488 298.616C18.8933 298.541 19.2027 298.413 19.416 298.232C19.6293 298.04 19.736 297.752 19.736 297.368V291.16C19.736 290.669 19.7253 290.296 19.704 290.04C19.6827 289.773 19.6453 289.587 19.592 289.48C19.5493 289.373 19.4853 289.315 19.4 289.304C19.2507 289.272 19.0907 289.256 18.92 289.256C18.76 289.245 18.5413 289.24 18.264 289.24H17.512C17.256 289.24 17 289.293 16.744 289.4C16.4987 289.496 16.3173 289.651 16.2 289.864C16.168 289.917 16.1147 289.997 16.04 290.104C15.9653 290.2 15.8853 290.285 15.8 290.36C15.7147 290.435 15.6293 290.472 15.544 290.472C15.5013 290.472 15.4693 290.451 15.448 290.408C15.4373 290.365 15.432 290.317 15.432 290.264C15.432 290.157 15.4587 290.051 15.512 289.944C15.6613 289.635 15.768 289.363 15.832 289.128C15.9067 288.883 15.9653 288.595 16.008 288.264C16.0293 288.083 16.0667 287.976 16.12 287.944C16.184 287.912 16.2373 287.896 16.28 287.896C16.3227 287.896 16.3867 287.96 16.472 288.088C16.568 288.216 16.6373 288.323 16.68 288.408C16.744 288.515 16.888 288.595 17.112 288.648C17.3467 288.701 17.576 288.728 17.8 288.728H23.432C23.8053 288.728 24.1093 288.707 24.344 288.664C24.5787 288.621 24.7813 288.563 24.952 288.488C25.08 288.424 25.1813 288.355 25.256 288.28C25.3413 288.205 25.448 288.168 25.576 288.168C25.608 288.168 25.6347 288.211 25.656 288.296C25.6773 288.371 25.688 288.451 25.688 288.536C25.688 288.589 25.6773 288.664 25.656 288.76C25.6453 288.856 25.6347 288.931 25.624 288.984C25.592 289.176 25.56 289.315 25.528 289.4C25.5067 289.485 25.4907 289.56 25.48 289.624C25.4693 289.688 25.464 289.789 25.464 289.928V290.12C25.464 290.216 25.4427 290.328 25.4 290.456C25.3573 290.573 25.2933 290.632 25.208 290.632C25.1333 290.632 25.0747 290.573 25.032 290.456C24.9893 290.339 24.9467 290.179 24.904 289.976C24.8613 289.752 24.7333 289.576 24.52 289.448C24.3067 289.309 23.944 289.24 23.432 289.24H21.816C21.5813 289.24 21.4053 289.272 21.288 289.336C21.1707 289.4 21.096 289.56 21.064 289.816C21.032 290.072 21.016 290.493 21.016 291.08V297.368C21.016 297.752 21.128 298.04 21.352 298.232C21.576 298.413 21.8853 298.541 22.28 298.616C22.4613 298.648 22.5947 298.685 22.68 298.728C22.7653 298.771 22.808 298.829 22.808 298.904C22.808 298.968 22.7653 299.011 22.68 299.032C22.5947 299.064 22.4827 299.08 22.344 299.08C22.056 299.08 21.816 299.069 21.624 299.048C21.4427 299.037 21.2667 299.027 21.096 299.016C20.9253 299.005 20.7173 299 20.472 299C20.2053 299 19.9707 299.005 19.768 299.016C19.576 299.027 19.3733 299.037 19.16 299.048C18.9573 299.069 18.712 299.08 18.424 299.08ZM26.3428 299.048C26.1294 299.048 26.0228 298.989 26.0228 298.872C26.0228 298.776 26.1454 298.691 26.3908 298.616C26.5508 298.563 26.7001 298.493 26.8388 298.408C26.9881 298.323 27.0681 298.173 27.0788 297.96V289.944C27.0788 289.656 27.0308 289.405 26.9348 289.192C26.8388 288.968 26.6521 288.835 26.3748 288.792C26.2788 288.771 26.2308 288.696 26.2308 288.568C26.2308 288.472 26.2734 288.408 26.3588 288.376C26.5081 288.323 26.6841 288.264 26.8868 288.2C27.1001 288.136 27.3188 288.067 27.5428 287.992C27.7668 287.907 27.9641 287.827 28.1348 287.752C28.1774 287.731 28.2094 287.72 28.2308 287.72C28.2628 287.72 28.2894 287.731 28.3108 287.752C28.3321 287.773 28.3428 287.8 28.3428 287.832C28.3428 287.896 28.3268 287.987 28.2948 288.104C28.2734 288.221 28.2521 288.424 28.2308 288.712C28.2094 289 28.1988 289.432 28.1988 290.008V292.792C28.1988 292.963 28.2041 293.085 28.2148 293.16C28.2361 293.235 28.2681 293.309 28.3108 293.384C28.4814 293.256 28.6894 293.117 28.9348 292.968C29.1908 292.808 29.4734 292.669 29.7828 292.552C30.0921 292.435 30.4121 292.376 30.7428 292.376C31.2654 292.376 31.6974 292.584 32.0388 293C32.3908 293.405 32.5668 293.923 32.5668 294.552V297.912C32.5668 298.125 32.6361 298.285 32.7748 298.392C32.9134 298.488 33.0628 298.563 33.2228 298.616C33.3401 298.648 33.4308 298.685 33.4948 298.728C33.5588 298.76 33.5908 298.808 33.5908 298.872C33.5908 298.989 33.4841 299.048 33.2708 299.048C33.0574 299.048 32.8921 299.037 32.7748 299.016C32.6681 299.005 32.5614 298.995 32.4548 298.984C32.3588 298.973 32.2148 298.968 32.0228 298.968C31.8414 298.968 31.6974 298.973 31.5908 298.984C31.4841 298.995 31.3721 299.005 31.2548 299.016C31.1481 299.037 30.9881 299.048 30.7748 299.048C30.5614 299.048 30.4548 298.989 30.4548 298.872C30.4548 298.797 30.4868 298.749 30.5508 298.728C30.6148 298.696 30.7054 298.659 30.8228 298.616C30.9828 298.563 31.1268 298.488 31.2548 298.392C31.3828 298.285 31.4468 298.125 31.4468 297.912V294.648C31.4468 294.381 31.3668 294.141 31.2068 293.928C31.0574 293.704 30.8708 293.528 30.6468 293.4C30.4228 293.272 30.1934 293.208 29.9588 293.208C29.7561 293.208 29.5214 293.24 29.2548 293.304C28.9881 293.357 28.7801 293.443 28.6308 293.56C28.4601 293.699 28.3428 293.843 28.2788 293.992C28.2254 294.141 28.1988 294.381 28.1988 294.712V297.96C28.2094 298.173 28.2734 298.323 28.3908 298.408C28.5188 298.493 28.6628 298.563 28.8228 298.616C28.9401 298.648 29.0254 298.685 29.0788 298.728C29.1428 298.76 29.1748 298.808 29.1748 298.872C29.1748 298.989 29.0681 299.048 28.8548 299.048C28.6414 299.048 28.4814 299.037 28.3748 299.016C28.2681 299.005 28.1668 298.995 28.0707 298.984C27.9748 298.973 27.8308 298.968 27.6388 298.968C27.4574 298.968 27.3081 298.973 27.1908 298.984C27.0841 298.995 26.9668 299.005 26.8388 299.016C26.7214 299.037 26.5561 299.048 26.3428 299.048ZM37.3611 299.24C36.7745 299.24 36.2625 299.096 35.8251 298.808C35.3878 298.52 35.0465 298.115 34.8011 297.592C34.5558 297.059 34.4331 296.445 34.4331 295.752C34.4331 295.133 34.5718 294.573 34.8491 294.072C35.1371 293.56 35.5158 293.149 35.9851 292.84C36.4545 292.531 36.9665 292.376 37.5211 292.376C37.9478 292.376 38.3265 292.461 38.6571 292.632C38.9878 292.803 39.2438 293.043 39.4251 293.352C39.6171 293.651 39.7131 293.997 39.7131 294.392C39.7131 294.723 39.5531 294.888 39.2331 294.888H35.8571C35.7078 294.888 35.6011 294.931 35.5371 295.016C35.4838 295.091 35.4571 295.245 35.4571 295.48C35.4571 295.992 35.5691 296.461 35.7931 296.888C36.0171 297.304 36.3158 297.64 36.6891 297.896C37.0625 298.141 37.4731 298.264 37.9211 298.264C38.2411 298.264 38.5291 298.205 38.7851 298.088C39.0518 297.96 39.2865 297.779 39.4891 297.544C39.5318 297.491 39.5638 297.459 39.5851 297.448C39.6065 297.427 39.6331 297.416 39.6651 297.416C39.7505 297.416 39.7931 297.469 39.7931 297.576C39.7931 297.779 39.6971 298.003 39.5051 298.248C39.3451 298.451 39.1531 298.627 38.9291 298.776C38.7051 298.925 38.4598 299.037 38.1931 299.112C37.9265 299.197 37.6491 299.24 37.3611 299.24ZM35.8891 294.392H37.3451C37.6011 294.392 37.8198 294.387 38.0011 294.376C38.1825 294.365 38.3585 294.344 38.5291 294.312C38.5825 294.301 38.6145 294.269 38.6251 294.216C38.6465 294.152 38.6571 294.067 38.6571 293.96C38.6571 293.651 38.5185 293.389 38.2411 293.176C37.9745 292.952 37.6545 292.84 37.2811 292.84C37.0358 292.84 36.7905 292.915 36.5451 293.064C36.2998 293.203 36.0971 293.379 35.9371 293.592C35.7771 293.805 35.6971 294.019 35.6971 294.232C35.6971 294.339 35.7611 294.392 35.8891 294.392ZM44.0146 299.048C43.9613 299.048 43.892 299.037 43.8066 299.016C43.732 299.005 43.6946 298.968 43.6946 298.904C43.6946 298.819 43.732 298.76 43.8066 298.728C43.892 298.685 43.9773 298.648 44.0626 298.616C44.2226 298.563 44.3773 298.504 44.5266 298.44C44.676 298.365 44.7506 298.221 44.7506 298.008V289.944C44.7506 289.635 44.692 289.379 44.5746 289.176C44.468 288.963 44.2813 288.829 44.0146 288.776C43.9293 288.755 43.8866 288.685 43.8866 288.568C43.8866 288.461 43.924 288.397 43.9986 288.376C44.276 288.312 44.516 288.248 44.7186 288.184C44.9213 288.109 45.108 288.035 45.2786 287.96C45.46 287.885 45.636 287.816 45.8066 287.752C45.8493 287.731 45.8813 287.72 45.9026 287.72C45.924 287.72 45.94 287.736 45.9506 287.768C45.972 287.789 45.9826 287.811 45.9826 287.832C45.9826 287.928 45.9613 288.136 45.9186 288.456C45.8866 288.765 45.8706 289.283 45.8706 290.008V298.008C45.8706 298.221 45.9453 298.365 46.0946 298.44C46.244 298.504 46.3986 298.563 46.5586 298.616C46.644 298.648 46.724 298.685 46.7986 298.728C46.884 298.76 46.9266 298.819 46.9266 298.904C46.9266 298.968 46.884 299.005 46.7986 299.016C46.724 299.037 46.66 299.048 46.6066 299.048C46.404 299.048 46.2386 299.037 46.1106 299.016C45.9933 299.005 45.876 298.995 45.7586 298.984C45.652 298.973 45.5026 298.968 45.3106 298.968C45.1293 298.968 44.98 298.973 44.8626 298.984C44.7453 298.995 44.628 299.005 44.5106 299.016C44.3933 299.037 44.228 299.048 44.0146 299.048ZM50.9784 299.224C50.381 299.224 49.8424 299.085 49.3624 298.808C48.8824 298.531 48.4984 298.152 48.2104 297.672C47.933 297.181 47.7944 296.627 47.7944 296.008C47.7944 295.56 47.8797 295.123 48.0504 294.696C48.2317 294.269 48.4824 293.88 48.8024 293.528C49.1224 293.176 49.4957 292.899 49.9224 292.696C50.349 292.483 50.8077 292.376 51.2984 292.376C51.917 292.376 52.4717 292.525 52.9624 292.824C53.4637 293.123 53.8584 293.517 54.1464 294.008C54.445 294.488 54.5944 295.016 54.5944 295.592C54.5944 296.211 54.4557 296.797 54.1784 297.352C53.9117 297.907 53.5117 298.36 52.9784 298.712C52.445 299.053 51.7784 299.224 50.9784 299.224ZM51.3144 298.744C51.677 298.744 52.0024 298.675 52.2904 298.536C52.5784 298.397 52.8024 298.173 52.9624 297.864C53.0904 297.619 53.1757 297.32 53.2184 296.968C53.261 296.616 53.2824 296.285 53.2824 295.976C53.2824 295.464 53.1864 294.973 52.9944 294.504C52.813 294.024 52.5517 293.635 52.2104 293.336C51.8797 293.027 51.485 292.872 51.0264 292.872C50.7384 292.872 50.477 292.92 50.2424 293.016C50.0184 293.101 49.8104 293.267 49.6184 293.512C49.405 293.779 49.2664 294.104 49.2024 294.488C49.1384 294.872 49.1064 295.256 49.1064 295.64C49.1064 296.163 49.2024 296.664 49.3944 297.144C49.5864 297.613 49.8477 297.997 50.1784 298.296C50.509 298.595 50.8877 298.744 51.3144 298.744ZM55.8603 299.048C55.7643 299.048 55.6843 299.032 55.6203 299C55.5669 298.979 55.5403 298.936 55.5403 298.872C55.5403 298.787 55.5723 298.733 55.6363 298.712C55.7003 298.68 55.7909 298.648 55.9083 298.616C56.0683 298.573 56.2229 298.515 56.3723 298.44C56.5216 298.365 56.5963 298.221 56.5963 298.008V294.568C56.5963 294.28 56.5643 294.035 56.5003 293.832C56.4469 293.629 56.2816 293.491 56.0043 293.416C55.9616 293.395 55.9243 293.373 55.8923 293.352C55.8603 293.32 55.8443 293.272 55.8443 293.208C55.8443 293.091 55.8923 293.027 55.9883 293.016C56.3616 292.92 56.6656 292.803 56.9003 292.664C57.1349 292.525 57.3643 292.371 57.5883 292.2C57.6203 292.179 57.6469 292.163 57.6683 292.152C57.7003 292.131 57.7323 292.12 57.7643 292.12C57.7856 292.12 57.8016 292.131 57.8123 292.152C57.8336 292.173 57.8443 292.2 57.8443 292.232C57.8443 292.307 57.8283 292.461 57.7963 292.696C57.7749 292.92 57.7643 293.107 57.7643 293.256C57.7643 293.299 57.7643 293.341 57.7643 293.384C57.7749 293.416 57.7856 293.437 57.7963 293.448C58.1696 293.096 58.5643 292.829 58.9803 292.648C59.4069 292.467 59.8709 292.376 60.3723 292.376C60.8949 292.376 61.3269 292.589 61.6683 293.016C62.0096 293.443 62.1803 293.971 62.1803 294.6V298.008C62.1803 298.221 62.2549 298.365 62.4043 298.44C62.5536 298.504 62.7083 298.563 62.8683 298.616C62.9536 298.648 63.0336 298.685 63.1083 298.728C63.1936 298.76 63.2362 298.819 63.2362 298.904C63.2362 298.968 63.1989 299.005 63.1243 299.016C63.0496 299.037 62.9803 299.048 62.9163 299.048C62.7029 299.048 62.5376 299.037 62.4203 299.016C62.3029 299.005 62.1909 298.995 62.0843 298.984C61.9776 298.973 61.8283 298.968 61.6363 298.968C61.4549 298.968 61.3056 298.973 61.1883 298.984C61.0709 298.995 60.9483 299.005 60.8203 299.016C60.7029 299.037 60.5376 299.048 60.3243 299.048C60.2709 299.048 60.2016 299.037 60.1163 299.016C60.0416 299.005 60.0043 298.968 60.0043 298.904C60.0043 298.819 60.0416 298.76 60.1163 298.728C60.2016 298.685 60.2869 298.648 60.3723 298.616C60.5323 298.563 60.6869 298.504 60.8363 298.44C60.9856 298.365 61.0603 298.221 61.0603 298.008V294.648C61.0603 294.179 60.9269 293.816 60.6603 293.56C60.4043 293.293 60.0576 293.155 59.6203 293.144C59.2363 293.144 58.9003 293.208 58.6123 293.336C58.3243 293.453 58.0683 293.603 57.8443 293.784C57.8016 293.827 57.7696 293.885 57.7483 293.96C57.7269 294.024 57.7163 294.088 57.7163 294.152V298.008C57.7163 298.221 57.7909 298.365 57.9403 298.44C58.0896 298.515 58.2443 298.573 58.4043 298.616C58.6496 298.68 58.7723 298.765 58.7723 298.872C58.7723 298.936 58.7456 298.979 58.6923 299C58.6389 299.032 58.5589 299.048 58.4523 299.048C58.2389 299.048 58.0683 299.037 57.9403 299.016C57.8229 299.005 57.7109 298.995 57.6043 298.984C57.4976 298.973 57.3483 298.968 57.1562 298.968C56.9749 298.968 56.8256 298.973 56.7083 298.984C56.6016 298.995 56.4843 299.005 56.3563 299.016C56.2389 299.037 56.0736 299.048 55.8603 299.048ZM66.7294 303.64C65.8227 303.64 65.1027 303.464 64.5694 303.112C64.0467 302.771 63.7854 302.307 63.7854 301.72C63.7854 301.443 63.828 301.208 63.9134 301.016C63.9987 300.824 64.132 300.659 64.3134 300.52C64.4627 300.392 64.66 300.227 64.9054 300.024C65.1614 299.832 65.4227 299.629 65.6894 299.416L66.3614 299.448C65.8494 299.779 65.492 300.093 65.2894 300.392C65.0867 300.691 64.9854 301.053 64.9854 301.48C64.9854 301.907 65.172 302.264 65.5454 302.552C65.9294 302.851 66.3987 303 66.9534 303C67.5827 303 68.0894 302.856 68.4734 302.568C68.74 302.365 68.948 302.099 69.0974 301.768C69.2467 301.448 69.3214 301.107 69.3214 300.744C69.3214 300.509 69.236 300.312 69.0654 300.152C68.9054 300.003 68.6494 299.88 68.2974 299.784C67.9454 299.688 67.4867 299.624 66.9214 299.592C65.9187 299.517 65.22 299.384 64.8254 299.192C64.4414 299 64.2494 298.701 64.2494 298.296C64.2494 298.189 64.276 298.093 64.3294 298.008C64.3934 297.912 64.4894 297.811 64.6174 297.704C64.8627 297.512 65.044 297.373 65.1614 297.288C65.2787 297.192 65.364 297.112 65.4174 297.048C65.4814 296.984 65.54 296.904 65.5934 296.808L66.1374 297.08C65.9027 297.165 65.7054 297.283 65.5454 297.432C65.3854 297.571 65.3054 297.699 65.3054 297.816C65.3054 297.965 65.3854 298.099 65.5454 298.216C65.7054 298.323 65.94 298.408 66.2494 298.472C66.5587 298.536 66.9374 298.584 67.3854 298.616C68.3667 298.669 69.0974 298.829 69.5774 299.096C70.0574 299.363 70.2974 299.741 70.2974 300.232C70.2974 300.648 70.1907 301.053 69.9774 301.448C69.7747 301.853 69.5027 302.221 69.1614 302.552C68.82 302.883 68.436 303.144 68.0094 303.336C67.5934 303.539 67.1667 303.64 66.7294 303.64ZM66.9214 296.744C67.3267 296.744 67.6627 296.541 67.9294 296.136C68.196 295.72 68.3294 295.208 68.3294 294.6C68.3294 294.291 68.2547 294.003 68.1054 293.736C67.9667 293.459 67.78 293.24 67.5454 293.08C67.3214 292.909 67.076 292.824 66.8094 292.824C66.564 292.824 66.3294 292.915 66.1054 293.096C65.892 293.267 65.716 293.491 65.5774 293.768C65.4494 294.045 65.3854 294.349 65.3854 294.68C65.3854 295.053 65.4547 295.4 65.5934 295.72C65.732 296.029 65.9187 296.28 66.1534 296.472C66.388 296.653 66.644 296.744 66.9214 296.744ZM66.8254 297.304C66.388 297.304 65.972 297.192 65.5774 296.968C65.1827 296.744 64.8574 296.451 64.6014 296.088C64.356 295.715 64.2334 295.309 64.2334 294.872C64.2334 294.371 64.3614 293.933 64.6174 293.56C64.884 293.176 65.2307 292.877 65.6574 292.664C66.084 292.451 66.5374 292.344 67.0174 292.344C67.3267 292.344 67.5934 292.387 67.8174 292.472C68.052 292.547 68.2814 292.616 68.5054 292.68C68.7614 292.755 68.964 292.803 69.1134 292.824C69.2627 292.835 69.4174 292.84 69.5774 292.84C69.7054 292.84 69.8654 292.835 70.0574 292.824C70.2494 292.803 70.3827 292.792 70.4574 292.792C70.596 292.792 70.6654 292.872 70.6654 293.032C70.6654 293.128 70.612 293.229 70.5054 293.336C70.452 293.389 70.4094 293.416 70.3774 293.416H69.9454C69.6574 293.416 69.4974 293.459 69.4654 293.544C69.4547 293.587 69.4387 293.651 69.4174 293.736C69.4067 293.811 69.396 293.896 69.3854 293.992C69.3747 294.088 69.3694 294.184 69.3694 294.28C69.3694 294.824 69.252 295.325 69.0174 295.784C68.7827 296.243 68.4734 296.611 68.0894 296.888C67.7054 297.165 67.284 297.304 66.8254 297.304ZM74.5496 299.048C74.443 299.048 74.363 299.032 74.3096 299C74.2563 298.979 74.2296 298.936 74.2296 298.872C74.2296 298.787 74.2616 298.733 74.3256 298.712C74.3896 298.68 74.4803 298.648 74.5976 298.616C74.8003 298.563 74.9496 298.488 75.0456 298.392C75.1523 298.285 75.2056 298.157 75.2056 298.008V294.568C75.2056 294.28 75.163 294.029 75.0776 293.816C74.9923 293.603 74.8163 293.469 74.5496 293.416C74.507 293.405 74.4696 293.379 74.4376 293.336C74.4056 293.293 74.3896 293.251 74.3896 293.208C74.3896 293.101 74.4376 293.037 74.5336 293.016C74.811 292.931 75.099 292.808 75.3976 292.648C75.707 292.477 75.947 292.339 76.1176 292.232C76.1816 292.189 76.2296 292.163 76.2616 292.152C76.3043 292.131 76.3363 292.12 76.3576 292.12C76.411 292.12 76.4376 292.157 76.4376 292.232C76.4376 292.264 76.4323 292.344 76.4216 292.472C76.4216 292.6 76.4163 292.749 76.4056 292.92C76.4056 293.091 76.4003 293.261 76.3896 293.432C76.3896 293.453 76.4003 293.464 76.4216 293.464C76.5923 293.251 76.779 293.064 76.9816 292.904C77.195 292.744 77.4083 292.616 77.6216 292.52C77.8456 292.424 78.059 292.376 78.2616 292.376C78.4856 292.376 78.667 292.424 78.8056 292.52C78.955 292.616 79.0296 292.739 79.0296 292.888C79.0296 292.995 78.9976 293.112 78.9336 293.24C78.8803 293.368 78.8056 293.48 78.7096 293.576C78.6136 293.672 78.5123 293.72 78.4056 293.72C78.3416 293.72 78.2723 293.709 78.1976 293.688C78.123 293.656 78.043 293.619 77.9576 293.576C77.8723 293.544 77.787 293.512 77.7016 293.48C77.6163 293.448 77.531 293.432 77.4456 293.432C77.1896 293.432 76.939 293.523 76.6936 293.704C76.459 293.885 76.3416 294.243 76.3416 294.776V298.008C76.3416 298.147 76.4163 298.264 76.5656 298.36C76.715 298.445 76.923 298.531 77.1896 298.616C77.307 298.648 77.3976 298.68 77.4616 298.712C77.5256 298.744 77.5576 298.797 77.5576 298.872C77.5576 298.989 77.451 299.048 77.2376 299.048C76.9176 299.048 76.6723 299.032 76.5016 299C76.3416 298.979 76.123 298.968 75.8456 298.968C75.6643 298.968 75.515 298.973 75.3976 298.984C75.291 298.995 75.1736 299.005 75.0456 299.016C74.9283 299.037 74.763 299.048 74.5496 299.048ZM84.9654 299.304C84.8907 299.304 84.8534 299.261 84.8534 299.176C84.8534 299.069 84.864 298.915 84.8854 298.712C84.9174 298.499 84.9334 298.323 84.9334 298.184C84.9334 298.163 84.9334 298.147 84.9334 298.136C84.9334 298.115 84.9334 298.099 84.9334 298.088C84.5174 298.493 84.096 298.787 83.6694 298.968C83.2534 299.139 82.7947 299.224 82.2934 299.224C81.952 299.224 81.6427 299.149 81.3654 299C81.088 298.861 80.8694 298.653 80.7094 298.376C80.5494 298.088 80.4694 297.736 80.4694 297.32V294.072C80.4694 293.837 80.416 293.651 80.3094 293.512C80.2027 293.373 80.0267 293.256 79.7814 293.16C79.728 293.139 79.68 293.112 79.6374 293.08C79.5947 293.048 79.5734 292.989 79.5734 292.904C79.5734 292.808 79.5947 292.744 79.6374 292.712C79.6907 292.68 79.7494 292.659 79.8134 292.648C80.176 292.627 80.4534 292.6 80.6454 292.568C80.848 292.525 81.0987 292.467 81.3974 292.392C81.4294 292.381 81.4507 292.376 81.4614 292.376C81.4827 292.376 81.504 292.376 81.5254 292.376C81.6427 292.376 81.696 292.451 81.6854 292.6C81.6534 292.845 81.6267 293.053 81.6054 293.224C81.5947 293.384 81.5894 293.587 81.5894 293.832V296.952C81.5894 297.208 81.6534 297.448 81.7814 297.672C81.9094 297.885 82.0747 298.061 82.2774 298.2C82.4907 298.339 82.7094 298.408 82.9334 298.408C83.2107 298.408 83.4507 298.392 83.6534 298.36C83.8667 298.328 84.0747 298.237 84.2774 298.088C84.3947 298.003 84.544 297.864 84.7254 297.672C84.9067 297.48 84.9974 297.219 84.9974 296.888V293.96C84.9974 293.736 84.928 293.571 84.7894 293.464C84.6614 293.347 84.512 293.267 84.3414 293.224C84.1707 293.181 84.032 293.16 83.9254 293.16C83.8294 293.16 83.7494 293.144 83.6854 293.112C83.6214 293.069 83.5894 292.995 83.5894 292.888C83.5894 292.792 83.6214 292.728 83.6854 292.696C83.76 292.664 83.84 292.648 83.9254 292.648C84.256 292.637 84.528 292.627 84.7414 292.616C84.9654 292.595 85.1627 292.568 85.3334 292.536C85.5147 292.493 85.7014 292.445 85.8934 292.392C85.9147 292.381 85.9414 292.376 85.9734 292.376C86.0054 292.365 86.032 292.36 86.0534 292.36C86.192 292.36 86.2614 292.419 86.2614 292.536C86.2614 292.547 86.256 292.568 86.2454 292.6C86.2454 292.621 86.24 292.648 86.2294 292.68C86.2187 292.712 86.2027 292.803 86.1814 292.952C86.1707 293.101 86.1547 293.256 86.1334 293.416C86.1227 293.576 86.1174 293.699 86.1174 293.784V297.48C86.1174 297.768 86.144 297.976 86.1974 298.104C86.2614 298.221 86.3307 298.28 86.4054 298.28C86.4907 298.28 86.6134 298.275 86.7734 298.264C86.944 298.243 87.0667 298.232 87.1414 298.232C87.1947 298.232 87.248 298.243 87.3014 298.264C87.3547 298.285 87.3814 298.344 87.3814 298.44C87.3814 298.525 87.36 298.584 87.3174 298.616C87.2747 298.637 87.2214 298.653 87.1574 298.664C86.7414 298.717 86.384 298.797 86.0854 298.904C85.7867 299.011 85.52 299.112 85.2854 299.208C85.2534 299.219 85.2054 299.235 85.1414 299.256C85.0774 299.288 85.0187 299.304 84.9654 299.304ZM88.2509 299.048C88.1549 299.048 88.0749 299.032 88.0109 299C87.9575 298.979 87.9309 298.936 87.9309 298.872C87.9309 298.787 87.9629 298.733 88.0269 298.712C88.0909 298.68 88.1815 298.648 88.2989 298.616C88.4589 298.573 88.6135 298.515 88.7629 298.44C88.9122 298.365 88.9869 298.221 88.9869 298.008V294.568C88.9869 294.28 88.9549 294.035 88.8909 293.832C88.8375 293.629 88.6722 293.491 88.3949 293.416C88.3522 293.395 88.3149 293.373 88.2829 293.352C88.2509 293.32 88.2349 293.272 88.2349 293.208C88.2349 293.091 88.2829 293.027 88.3789 293.016C88.7522 292.92 89.0562 292.803 89.2909 292.664C89.5255 292.525 89.7549 292.371 89.9789 292.2C90.0109 292.179 90.0375 292.163 90.0589 292.152C90.0909 292.131 90.1229 292.12 90.1549 292.12C90.1762 292.12 90.1922 292.131 90.2029 292.152C90.2242 292.173 90.2349 292.2 90.2349 292.232C90.2349 292.307 90.2189 292.461 90.1869 292.696C90.1655 292.92 90.1549 293.107 90.1549 293.256C90.1549 293.299 90.1549 293.341 90.1549 293.384C90.1655 293.416 90.1762 293.437 90.1869 293.448C90.5602 293.096 90.9549 292.829 91.3709 292.648C91.7975 292.467 92.2615 292.376 92.7629 292.376C93.2855 292.376 93.7175 292.589 94.0589 293.016C94.4002 293.443 94.5709 293.971 94.5709 294.6V298.008C94.5709 298.221 94.6455 298.365 94.7949 298.44C94.9442 298.504 95.0989 298.563 95.2589 298.616C95.3442 298.648 95.4242 298.685 95.4989 298.728C95.5842 298.76 95.6269 298.819 95.6269 298.904C95.6269 298.968 95.5895 299.005 95.5149 299.016C95.4402 299.037 95.3709 299.048 95.3069 299.048C95.0935 299.048 94.9282 299.037 94.8109 299.016C94.6935 299.005 94.5815 298.995 94.4749 298.984C94.3682 298.973 94.2189 298.968 94.0269 298.968C93.8455 298.968 93.6962 298.973 93.5789 298.984C93.4615 298.995 93.3389 299.005 93.2109 299.016C93.0935 299.037 92.9282 299.048 92.7149 299.048C92.6615 299.048 92.5922 299.037 92.5069 299.016C92.4322 299.005 92.3949 298.968 92.3949 298.904C92.3949 298.819 92.4322 298.76 92.5069 298.728C92.5922 298.685 92.6775 298.648 92.7629 298.616C92.9229 298.563 93.0775 298.504 93.2269 298.44C93.3762 298.365 93.4509 298.221 93.4509 298.008V294.648C93.4509 294.179 93.3175 293.816 93.0509 293.56C92.7949 293.293 92.4482 293.155 92.0109 293.144C91.6269 293.144 91.2909 293.208 91.0029 293.336C90.7149 293.453 90.4589 293.603 90.2349 293.784C90.1922 293.827 90.1602 293.885 90.1389 293.96C90.1175 294.024 90.1069 294.088 90.1069 294.152V298.008C90.1069 298.221 90.1815 298.365 90.3309 298.44C90.4802 298.515 90.6349 298.573 90.7949 298.616C91.0402 298.68 91.1629 298.765 91.1629 298.872C91.1629 298.936 91.1362 298.979 91.0829 299C91.0295 299.032 90.9495 299.048 90.8429 299.048C90.6295 299.048 90.4589 299.037 90.3309 299.016C90.2135 299.005 90.1015 298.995 89.9949 298.984C89.8882 298.973 89.7389 298.968 89.5469 298.968C89.3655 298.968 89.2162 298.973 89.0989 298.984C88.9922 298.995 88.8749 299.005 88.7469 299.016C88.6295 299.037 88.4642 299.048 88.2509 299.048Z" fill="#202B28"/>
</g>
<defs>
<clipPath id="clip0_4_1793">
<rect width="240" height="320" fill="white"/>
</clipPath>
</defs>
</svg>
