<svg xmlns="http://www.w3.org/2000/svg" width="960" height="754" viewBox="0 0 960 754" role="img"><title>Research allocation</title><desc>As of: 2026-08-07 08:29 ET · Source: published allocation framework (content.js) · Subjective research allocation · not account holdings</desc><rect width="960" height="754" fill="#fff"/><g font-family="Arial, sans-serif"><text x="24" y="28" font-size="24" fill="#111315">Research allocation</text><text x="24" y="59" font-size="14" fill="#364e60">As of: 2026-08-07 08:29 ET</text><text x="24" y="80" font-size="14" fill="#364e60">Source: published allocation framework (content.js)</text><text x="24" y="101" font-size="14" fill="#364e60">Subjective research allocation · not account holdings</text><text x="24" y="122" font-size="18" fill="#111315">━ Research weight (%)</text><text x="24" y="147" font-size="14" fill="#182c37">Scale: 0 — 100 %</text><text x="24" y="168" font-size="15" fill="#182c37">NVDA · No data % · No data</text><path d="M30 190H860 M30 183V197" stroke="#80909b" fill="none"/><text x="24" y="220" font-size="15" fill="#182c37">AVGO · No data % · No data</text><path d="M30 242H860 M30 235V249" stroke="#80909b" fill="none"/><text x="24" y="272" font-size="15" fill="#182c37">AMD · No data % · No data</text><path d="M30 294H860 M30 287V301" stroke="#80909b" fill="none"/><text x="24" y="324" font-size="15" fill="#182c37">ORCL · No data % · No data</text><path d="M30 346H860 M30 339V353" stroke="#80909b" fill="none"/><text x="24" y="376" font-size="15" fill="#182c37">AMZN · No data % · No data</text><path d="M30 398H860 M30 391V405" stroke="#80909b" fill="none"/><text x="24" y="428" font-size="15" fill="#182c37">MSFT · No data % · No data</text><path d="M30 450H860 M30 443V457" stroke="#80909b" fill="none"/><text x="24" y="480" font-size="15" fill="#182c37">TSM · No data % · No data</text><path d="M30 502H860 M30 495V509" stroke="#80909b" fill="none"/><text x="24" y="532" font-size="15" fill="#182c37">GOOGL · No data % · No data</text><path d="M30 554H860 M30 547V561" stroke="#80909b" fill="none"/><text x="24" y="584" font-size="15" fill="#182c37">MU · No data % · No data</text><path d="M30 606H860 M30 599V613" stroke="#80909b" fill="none"/><text x="24" y="636" font-size="15" fill="#182c37">VRT · No data % · No data</text><path d="M30 658H860 M30 651V665" stroke="#80909b" fill="none"/><text x="24" y="696" font-size="14" fill="#364e60">No data means missing or undisclosed, never zero. Exact trade</text><text x="24" y="717" font-size="14" fill="#364e60">dates and private settlement details are not published.</text></g></svg>